<?xml version="1.0" standalone="no"?>
<!DOCTYPE svg PUBLIC "-//W3C//DTD SVG 20010904//EN"
 "http://www.w3.org/TR/2001/REC-SVG-20010904/DTD/svg10.dtd">
<svg version="1.0" xmlns="http://www.w3.org/2000/svg"
 width="686.000000pt" height="411.000000pt" viewBox="0 0 686.000000 411.000000"
 preserveAspectRatio="xMidYMid meet">

<g transform="translate(0.000000,411.000000) scale(0.100000,-0.100000)"
fill="#000000" stroke="none">
<path d="M3123 3945 c-88 -58 -161 -175 -219 -353 l-27 -84 -41 6 c-23 3 -81
12 -131 21 -119 21 -253 15 -323 -15 -194 -83 -155 -307 100 -575 21 -22 38
-42 38 -45 0 -3 -10 -16 -23 -30 -202 -221 -272 -375 -222 -493 19 -46 77 -92
140 -113 64 -20 262 -15 375 10 41 9 78 16 81 16 3 0 14 -28 24 -62 10 -35 21
-67 25 -73 4 -5 15 -32 25 -59 47 -127 148 -245 228 -267 119 -32 226 42 308
211 51 105 54 112 75 180 9 30 20 59 24 63 4 5 52 -1 106 -12 67 -14 135 -21
212 -21 106 0 119 2 176 30 65 31 99 70 117 134 27 97 -51 259 -201 418 -27
29 -50 59 -50 67 0 8 24 40 53 70 101 109 154 191 187 285 23 67 24 86 9 139
-36 132 -192 182 -439 141 -52 -9 -113 -18 -135 -21 l-40 -4 -28 87 c-57 177
-138 304 -221 349 -20 11 -36 23 -36 27 0 5 -26 8 -57 7 -49 0 -67 -6 -110
-34z m152 -34 c80 -37 134 -108 195 -256 24 -58 50 -159 42 -166 -7 -7 -239
-105 -273 -116 -10 -3 -47 9 -84 26 -36 17 -69 31 -73 31 -4 0 -37 12 -74 26
-79 30 -83 41 -47 134 11 30 24 67 29 82 18 57 90 172 130 206 18 16 91 52
105 52 6 0 28 -9 50 -19z m-600 -427 c72 -8 165 -30 178 -43 6 -6 3 -41 -7
-89 -9 -43 -16 -97 -16 -118 0 -56 -16 -104 -41 -122 -11 -8 -63 -48 -115 -88
-52 -41 -101 -74 -108 -74 -16 0 -112 102 -155 164 -80 116 -113 212 -91 267
16 40 37 66 65 82 31 17 145 36 190 32 22 -2 67 -7 100 -11z m1308 4 c64 -10
76 -16 114 -55 37 -37 43 -48 43 -85 0 -68 -35 -153 -98 -237 -59 -79 -137
-161 -153 -161 -9 0 -35 15 -56 33 -22 17 -73 58 -115 90 -84 64 -85 67 -99
192 -4 44 -12 99 -17 122 -5 23 -6 46 -3 51 8 14 81 33 176 47 108 17 125 17
208 3z m-429 -150 c20 -94 21 -148 3 -148 -7 0 -28 11 -47 24 -19 13 -66 40
-105 61 -76 41 -95 54 -95 64 0 13 212 92 222 82 3 -3 14 -41 22 -83z m-547
61 c95 -35 144 -59 139 -68 -3 -5 -20 -16 -38 -25 -18 -9 -55 -30 -83 -47 -27
-16 -57 -32 -65 -36 -8 -3 -23 -13 -32 -21 -10 -8 -25 -12 -34 -8 -12 5 -14
15 -9 49 7 49 26 147 31 165 5 17 25 15 91 -9z m320 -145 c49 -26 99 -54 113
-63 14 -9 42 -26 63 -36 22 -11 50 -33 63 -48 23 -28 24 -33 24 -210 0 -206 1
-201 -85 -254 -119 -74 -253 -143 -277 -143 -36 0 -318 158 -350 197 -10 12
-13 59 -13 187 0 94 3 183 7 198 8 26 63 66 193 138 33 18 78 43 100 56 22 12
48 22 57 23 10 1 57 -20 105 -45z m427 -279 c42 -33 76 -67 76 -76 0 -19 -158
-151 -174 -146 -10 3 -17 257 -8 284 5 16 13 11 106 -62z m-946 -75 c1 -76 -2
-138 -7 -143 -12 -12 -181 123 -178 143 3 19 156 142 171 137 7 -2 12 -51 14
-137z m-207 -67 c8 -9 60 -51 115 -94 109 -84 114 -93 114 -185 0 -24 7 -69
15 -101 8 -31 15 -65 15 -75 0 -35 -114 -67 -266 -75 -80 -5 -112 -2 -155 12
-102 33 -150 109 -120 187 35 91 51 122 99 187 73 100 131 161 152 161 10 0
24 -7 31 -17z m1349 -37 c29 -30 68 -76 87 -103 169 -236 127 -378 -115 -391
-77 -4 -105 -1 -279 34 -45 9 -52 27 -38 101 8 37 18 104 23 148 8 63 15 83
31 95 12 8 65 50 119 92 53 42 102 77 108 77 7 1 35 -23 64 -53z m-961 -240
c50 -29 104 -59 121 -66 39 -16 34 -30 -21 -56 -88 -42 -120 -54 -147 -54 -27
0 -28 2 -46 104 -16 89 -16 126 -1 126 1 0 44 -24 94 -54z m581 19 c0 -42 -28
-187 -38 -196 -6 -6 -66 12 -157 45 -69 25 -69 44 -2 80 30 15 80 45 113 66
75 49 84 49 84 5z m-288 -169 c58 -26 109 -46 180 -71 26 -10 49 -23 52 -31
13 -33 -76 -253 -135 -334 -61 -84 -161 -117 -227 -74 -57 36 -137 151 -162
233 -5 14 -18 51 -29 81 -12 30 -21 67 -21 81 0 24 6 29 58 45 31 10 95 35
142 55 47 21 86 38 87 38 1 1 26 -10 55 -23z"/>
<path d="M3202 3092 c-26 -4 -44 -40 -97 -197 -21 -61 -48 -121 -61 -136 -13
-14 -21 -28 -17 -32 8 -9 108 -9 116 -1 4 4 -1 20 -11 36 -15 26 -15 31 -2 56
14 23 23 27 70 30 30 2 64 -2 76 -9 28 -14 35 -51 18 -84 -17 -32 -7 -37 61
-33 55 3 69 22 31 39 -14 7 -26 17 -26 23 0 5 -13 46 -29 90 -17 45 -40 109
-52 144 -23 65 -39 81 -77 74z m54 -167 c5 -30 3 -35 -17 -40 -49 -11 -64 -1
-63 41 1 22 9 57 19 78 l17 39 18 -41 c11 -23 22 -58 26 -77z"/>
<path d="M2202 1498 c-17 -17 -15 -24 9 -46 16 -16 20 -29 17 -68 l-3 -49 -57
3 c-113 7 -178 -55 -178 -170 0 -72 22 -119 70 -146 16 -9 30 -20 30 -24 0 -5
25 -8 55 -8 30 0 55 5 55 10 0 6 9 10 19 10 11 0 23 -4 26 -10 3 -5 24 -10 45
-10 29 0 42 5 50 20 9 16 6 24 -15 42 l-25 22 0 207 c0 196 -1 209 -19 219
-26 14 -64 13 -79 -2z m20 -224 c14 -9 10 -200 -5 -212 -44 -37 -129 -13 -153
44 -28 67 -4 152 49 174 21 9 90 5 109 -6z"/>
<path d="M3627 1503 c-15 -14 -6 -41 18 -57 l25 -16 0 -180 0 -180 -25 -12
c-25 -11 -30 -24 -19 -52 5 -12 21 -16 75 -16 38 0 69 4 69 9 0 5 3 16 6 25 4
10 -3 19 -20 27 l-26 12 0 204 c0 122 -4 212 -10 224 -8 14 -21 19 -49 19 -21
0 -41 -3 -44 -7z"/>
<path d="M1199 1463 c-18 -47 -35 -95 -58 -163 -12 -36 -26 -74 -31 -85 -5
-11 -18 -46 -29 -79 -11 -34 -29 -67 -45 -80 -19 -15 -24 -27 -20 -43 6 -21
12 -23 80 -23 l74 0 0 29 c0 20 -6 30 -20 34 -24 6 -25 30 -2 77 l17 35 84 3
c47 2 88 -2 95 -7 7 -6 19 -29 26 -51 12 -35 11 -42 -4 -59 -11 -13 -15 -27
-11 -40 6 -19 14 -21 75 -21 53 0 69 4 74 16 10 26 7 32 -24 51 -17 10 -34 31
-39 48 -17 57 -61 180 -71 197 -6 10 -10 25 -10 33 0 8 -4 23 -9 33 -5 9 -17
40 -28 67 -18 49 -19 50 -66 53 -44 3 -48 1 -58 -25z m68 -65 c5 -7 20 -46 33
-87 27 -85 23 -91 -50 -91 -70 0 -74 7 -47 76 13 32 27 71 30 87 8 29 19 34
34 15z"/>
<path d="M1564 1475 c-4 -9 4 -25 17 -38 23 -21 24 -26 24 -193 0 -169 0 -172
-24 -191 -20 -17 -22 -22 -12 -41 11 -21 19 -22 119 -22 87 0 116 4 149 20 90
43 121 145 63 207 -23 25 -26 48 -7 60 27 17 40 69 27 110 -28 87 -64 103
-225 103 -103 0 -127 -3 -131 -15z m273 -69 c29 -34 29 -65 2 -100 -20 -25
-25 -27 -93 -24 l-71 3 -3 63 c-4 85 5 95 82 90 49 -4 63 -9 83 -32z m-18
-201 c48 -24 56 -81 18 -119 -28 -28 -114 -44 -146 -26 -18 9 -21 20 -21 70 0
86 3 90 67 90 30 0 67 -7 82 -15z"/>
<path d="M2804 1475 c-7 -18 12 -45 32 -45 11 0 14 -34 14 -184 0 -175 -1
-184 -20 -189 -15 -4 -20 -14 -20 -36 l0 -31 125 0 c69 0 125 4 125 9 0 5 12
12 26 15 78 20 114 141 59 200 -14 15 -25 30 -25 33 0 3 11 18 25 35 46 55 27
141 -42 186 -29 20 -46 22 -163 22 -107 0 -132 -3 -136 -15z m267 -64 c34 -34
38 -77 12 -110 -16 -20 -26 -22 -93 -19 l-75 3 -3 65 c-4 77 8 90 81 90 40 0
53 -5 78 -29z m3 -212 c33 -26 36 -84 6 -116 -33 -36 -141 -42 -162 -9 -11 17
-9 105 2 127 16 28 117 27 154 -2z"/>
<path d="M3884 1476 c-9 -23 -1 -48 18 -60 26 -16 68 26 52 52 -14 22 -62 28
-70 8z"/>
<path d="M2524 1336 c-85 -23 -114 -64 -114 -164 0 -84 14 -119 63 -156 28
-21 45 -26 96 -26 34 0 67 5 74 10 7 6 21 17 32 25 19 13 19 15 4 30 -13 13
-21 15 -37 6 -30 -16 -93 -16 -122 -1 -34 18 -49 40 -50 72 l0 27 113 3 112 3
3 39 c8 93 -78 158 -174 132z m91 -71 c35 -34 32 -53 -11 -61 -37 -7 -121 -1
-131 10 -10 10 20 58 42 67 38 15 75 10 100 -16z"/>
<path d="M4904 1331 c-70 -23 -103 -74 -104 -159 0 -73 27 -136 65 -154 14 -6
25 -15 25 -20 0 -16 127 -9 159 10 51 28 32 79 -19 52 -31 -17 -94 -15 -123 4
-28 19 -53 69 -42 85 4 7 49 11 115 11 121 0 125 2 114 69 -14 88 -97 133
-190 102z m114 -68 c7 -10 11 -27 10 -38 -3 -17 -12 -20 -68 -22 -77 -4 -95 5
-86 41 13 52 110 64 144 19z"/>
<path d="M3316 1325 c-51 -28 -86 -91 -86 -157 0 -49 44 -145 70 -153 11 -4
20 -11 20 -16 0 -17 126 -10 159 9 67 38 47 71 -30 48 -50 -15 -55 -15 -96 5
-28 13 -45 29 -49 45 -13 49 -3 54 109 54 124 0 134 6 117 70 -6 22 -24 55
-39 72 -24 27 -36 32 -87 35 -41 3 -68 -1 -88 -12z m119 -47 c21 -9 25 -18 23
-42 -3 -31 -3 -31 -68 -32 -91 -2 -111 16 -65 61 27 28 68 32 110 13z"/>
<path d="M4133 1324 c-52 -26 -76 -74 -76 -153 -1 -77 17 -118 66 -155 63 -48
207 -26 207 32 0 26 -4 26 -56 9 -22 -7 -53 -11 -71 -9 -42 4 -85 48 -81 81 3
26 4 26 113 31 l110 5 3 40 c3 47 -27 102 -68 122 -35 18 -109 16 -147 -3z
m138 -55 c5 -8 8 -25 7 -39 -3 -22 -8 -25 -48 -28 -104 -8 -141 22 -82 68 21
17 36 21 71 17 24 -3 47 -11 52 -18z"/>
<path d="M5338 1326 c-16 -9 -30 -11 -33 -5 -4 5 -31 9 -61 9 -47 0 -54 -3
-54 -20 0 -10 9 -24 20 -30 18 -10 20 -21 20 -107 0 -84 -3 -100 -21 -119 -14
-15 -19 -29 -14 -43 6 -19 14 -21 75 -21 53 0 69 4 74 16 11 27 7 39 -16 49
-21 9 -23 18 -26 101 -3 107 5 119 77 119 44 0 46 1 46 30 0 26 -4 30 -30 33
-16 1 -42 -4 -57 -12z"/>
<path d="M3836 1321 c-10 -16 5 -41 25 -41 18 0 19 -9 19 -111 0 -102 -2 -111
-20 -116 -21 -5 -25 -19 -14 -47 5 -12 21 -16 68 -16 50 0 63 4 73 20 11 17 9
23 -12 42 -23 22 -25 30 -27 148 l-3 125 -52 3 c-28 2 -54 -1 -57 -7z"/>
<path d="M4413 1314 c-4 -10 4 -25 21 -40 14 -14 26 -31 26 -39 0 -8 7 -31 16
-52 9 -21 20 -47 24 -58 4 -11 15 -38 23 -60 8 -22 18 -48 21 -57 3 -12 15
-18 34 -18 32 0 34 4 97 170 20 52 45 104 56 116 35 37 25 54 -31 54 -55 0
-69 -14 -51 -48 8 -15 4 -36 -15 -88 -32 -90 -47 -124 -55 -124 -7 0 -59 142
-66 181 -3 15 0 30 6 33 6 4 11 16 11 27 0 16 -7 19 -55 19 -42 0 -57 -4 -62
-16z"/>
</g>
</svg>
